<?xml version="1.0" ?><svg viewBox="0 0 32 32" xmlns="http://www.w3.org/2000/svg"><title/><g data-name="Layer 2" id="Layer_2"><path d="M27,2H7a2.92,2.92,0,0,0-2.11.87A2.94,2.94,0,0,0,4,5V29a1,1,0,0,0,1,1H23a1,1,0,0,0,1-1V26h3a1,1,0,0,0,1-1V3A1,1,0,0,0,27,2ZM13,14a2,2,0,1,1-2-2A2,2,0,0,1,13,14Zm7.88,9.47A1,1,0,0,1,20,24H8a1,1,0,0,1-.8-1.6l3-4a1,1,0,0,1,1.25-.29l1.35.67,2.49-2.49A1,1,0,0,1,16.1,16a1,1,0,0,1,.73.45l4,6A1,1,0,0,1,20.88,23.47ZM26,24H24V7a1,1,0,0,0-1-1H7A1,1,0,0,1,6,5a1,1,0,0,1,.31-.71A1,1,0,0,1,7,4H26Z"/></g></svg>